<svg xmlns="http://www.w3.org/2000/svg" viewBox="0 0 100 100">
  <circle cx="50" cy="50" r="48" fill="#2b3237"/>
  <path d="M50 20a4 4 0 0 1 4 4v4.2a22 22 0 0 1 6.3 2.6l3-3a4 4 0 0 1 5.6 5.6l-3 3a22 22 0 0 1 2.6 6.3H72a4 4 0 0 1 0 8h-4.2a22 22 0 0 1-2.6 6.3l3 3a4 4 0 0 1-5.6 5.6l-3-3a22 22 0 0 1-6.3 2.6V72a4 4 0 0 1-8 0v-4.2a22 22 0 0 1-6.3-2.6l-3 3a4 4 0 0 1-5.6-5.6l3-3a22 22 0 0 1-2.6-6.3H28a4 4 0 0 1 0-8h4.2a22 22 0 0 1 2.6-6.3l-3-3a4 4 0 0 1 5.6-5.6l3 3a22 22 0 0 1 6.3-2.6V24a4 4 0 0 1 4-4zm0 20a14 14 0 1 0 0 28 14 14 0 0 0 0-28z" fill="#ebae46"/>
</svg>
